<mxfile host="app.diagrams.net" modified="2021-06-16T07:21:18.683Z" agent="5.0 (Windows NT 10.0; Win64; x64) AppleWebKit/537.36 (KHTML, like Gecko) Chrome/90.0.4430.212 Safari/537.36" etag="wAhhXLdzsRlINUQU85y_" version="14.7.8" type="github">
  <diagram id="q8rS1le6xFCBnVr2BuAs" name="第 1 页">
    <mxGraphModel dx="1422" dy="834" grid="1" gridSize="10" guides="1" tooltips="1" connect="1" arrows="1" fold="1" page="1" pageScale="1" pageWidth="827" pageHeight="1169" math="0" shadow="0">
      <root>
        <mxCell id="0" />
        <mxCell id="1" parent="0" />
        <mxCell id="S-LU_qJC10lirUp9yv28-2" style="edgeStyle=orthogonalEdgeStyle;rounded=0;orthogonalLoop=1;jettySize=auto;html=1;exitX=0.5;exitY=1;exitDx=0;exitDy=0;comic=1;" edge="1" parent="1" source="S-LU_qJC10lirUp9yv28-1">
          <mxGeometry relative="1" as="geometry">
            <mxPoint x="405" y="240" as="targetPoint" />
          </mxGeometry>
        </mxCell>
        <mxCell id="S-LU_qJC10lirUp9yv28-1" value="&lt;font style=&quot;font-size: 16px&quot;&gt;匹配驱动程序&lt;/font&gt;" style="ellipse;whiteSpace=wrap;html=1;comic=1;strokeWidth=2;" vertex="1" parent="1">
          <mxGeometry x="320" y="107" width="170" height="90" as="geometry" />
        </mxCell>
        <mxCell id="S-LU_qJC10lirUp9yv28-5" style="edgeStyle=orthogonalEdgeStyle;rounded=0;comic=1;orthogonalLoop=1;jettySize=auto;html=1;exitX=0;exitY=0.5;exitDx=0;exitDy=0;exitPerimeter=0;fontSize=16;" edge="1" parent="1" source="S-LU_qJC10lirUp9yv28-4">
          <mxGeometry relative="1" as="geometry">
            <mxPoint x="260" y="270" as="targetPoint" />
          </mxGeometry>
        </mxCell>
        <mxCell id="S-LU_qJC10lirUp9yv28-9" style="edgeStyle=orthogonalEdgeStyle;rounded=0;comic=1;orthogonalLoop=1;jettySize=auto;html=1;exitX=0.5;exitY=1;exitDx=0;exitDy=0;exitPerimeter=0;fontSize=16;entryX=0.5;entryY=0;entryDx=0;entryDy=0;" edge="1" parent="1" source="S-LU_qJC10lirUp9yv28-4" target="S-LU_qJC10lirUp9yv28-6">
          <mxGeometry relative="1" as="geometry">
            <mxPoint x="405" y="360" as="targetPoint" />
          </mxGeometry>
        </mxCell>
        <mxCell id="S-LU_qJC10lirUp9yv28-4" value="for" style="strokeWidth=2;html=1;shape=mxgraph.flowchart.decision;whiteSpace=wrap;comic=1;fontSize=16;" vertex="1" parent="1">
          <mxGeometry x="355" y="240" width="100" height="60" as="geometry" />
        </mxCell>
        <mxCell id="S-LU_qJC10lirUp9yv28-11" style="edgeStyle=orthogonalEdgeStyle;rounded=0;comic=1;orthogonalLoop=1;jettySize=auto;html=1;fontSize=16;" edge="1" parent="1" source="S-LU_qJC10lirUp9yv28-6">
          <mxGeometry relative="1" as="geometry">
            <mxPoint x="405" y="470" as="targetPoint" />
          </mxGeometry>
        </mxCell>
        <mxCell id="S-LU_qJC10lirUp9yv28-6" value="OneTick" style="rounded=1;whiteSpace=wrap;html=1;comic=1;fontSize=16;strokeWidth=2;" vertex="1" parent="1">
          <mxGeometry x="345" y="370" width="120" height="60" as="geometry" />
        </mxCell>
        <mxCell id="S-LU_qJC10lirUp9yv28-7" value="Close" style="text;html=1;strokeColor=none;fillColor=none;align=center;verticalAlign=middle;whiteSpace=wrap;rounded=0;comic=1;fontSize=16;" vertex="1" parent="1">
          <mxGeometry x="290" y="250" width="40" height="20" as="geometry" />
        </mxCell>
        <mxCell id="S-LU_qJC10lirUp9yv28-8" value="强制结束" style="strokeWidth=2;html=1;shape=mxgraph.flowchart.terminator;whiteSpace=wrap;comic=1;fontSize=16;" vertex="1" parent="1">
          <mxGeometry x="160" y="240" width="100" height="60" as="geometry" />
        </mxCell>
        <mxCell id="S-LU_qJC10lirUp9yv28-10" value="Ticker" style="text;html=1;strokeColor=none;fillColor=none;align=center;verticalAlign=middle;whiteSpace=wrap;rounded=0;comic=1;fontSize=16;" vertex="1" parent="1">
          <mxGeometry x="410" y="324" width="40" height="20" as="geometry" />
        </mxCell>
        <mxCell id="S-LU_qJC10lirUp9yv28-14" style="edgeStyle=orthogonalEdgeStyle;rounded=0;comic=1;orthogonalLoop=1;jettySize=auto;html=1;fontSize=16;" edge="1" parent="1" source="S-LU_qJC10lirUp9yv28-13">
          <mxGeometry relative="1" as="geometry">
            <mxPoint x="405" y="560" as="targetPoint" />
          </mxGeometry>
        </mxCell>
        <mxCell id="S-LU_qJC10lirUp9yv28-16" style="edgeStyle=orthogonalEdgeStyle;rounded=0;comic=1;orthogonalLoop=1;jettySize=auto;html=1;fontSize=16;" edge="1" parent="1" source="S-LU_qJC10lirUp9yv28-13">
          <mxGeometry relative="1" as="geometry">
            <mxPoint x="270" y="495" as="targetPoint" />
          </mxGeometry>
        </mxCell>
        <mxCell id="S-LU_qJC10lirUp9yv28-13" value="CloseTag" style="strokeWidth=2;html=1;shape=mxgraph.flowchart.decision;whiteSpace=wrap;comic=1;fontSize=16;" vertex="1" parent="1">
          <mxGeometry x="355" y="470" width="100" height="50" as="geometry" />
        </mxCell>
        <mxCell id="S-LU_qJC10lirUp9yv28-17" style="edgeStyle=orthogonalEdgeStyle;rounded=0;comic=1;orthogonalLoop=1;jettySize=auto;html=1;fontSize=16;entryX=1;entryY=0.5;entryDx=0;entryDy=0;entryPerimeter=0;" edge="1" parent="1" source="S-LU_qJC10lirUp9yv28-15" target="S-LU_qJC10lirUp9yv28-42">
          <mxGeometry relative="1" as="geometry">
            <mxPoint x="300" y="584.5" as="targetPoint" />
          </mxGeometry>
        </mxCell>
        <mxCell id="S-LU_qJC10lirUp9yv28-21" style="edgeStyle=orthogonalEdgeStyle;rounded=0;comic=1;orthogonalLoop=1;jettySize=auto;html=1;fontSize=16;" edge="1" parent="1" source="S-LU_qJC10lirUp9yv28-15">
          <mxGeometry relative="1" as="geometry">
            <mxPoint x="405" y="650" as="targetPoint" />
          </mxGeometry>
        </mxCell>
        <mxCell id="S-LU_qJC10lirUp9yv28-15" value="ReloadTag" style="strokeWidth=2;html=1;shape=mxgraph.flowchart.decision;whiteSpace=wrap;comic=1;fontSize=16;" vertex="1" parent="1">
          <mxGeometry x="355" y="559.5" width="100" height="50" as="geometry" />
        </mxCell>
        <mxCell id="S-LU_qJC10lirUp9yv28-18" value="Y" style="text;html=1;strokeColor=none;fillColor=none;align=center;verticalAlign=middle;whiteSpace=wrap;rounded=0;comic=1;fontSize=16;" vertex="1" parent="1">
          <mxGeometry x="315" y="470" width="40" height="20" as="geometry" />
        </mxCell>
        <mxCell id="S-LU_qJC10lirUp9yv28-19" value="Y" style="text;html=1;strokeColor=none;fillColor=none;align=center;verticalAlign=middle;whiteSpace=wrap;rounded=0;comic=1;fontSize=16;" vertex="1" parent="1">
          <mxGeometry x="315" y="559.5" width="40" height="20" as="geometry" />
        </mxCell>
        <mxCell id="S-LU_qJC10lirUp9yv28-20" value="N" style="text;html=1;strokeColor=none;fillColor=none;align=center;verticalAlign=middle;whiteSpace=wrap;rounded=0;comic=1;fontSize=16;" vertex="1" parent="1">
          <mxGeometry x="400" y="530" width="40" height="20" as="geometry" />
        </mxCell>
        <mxCell id="S-LU_qJC10lirUp9yv28-22" value="N" style="text;html=1;strokeColor=none;fillColor=none;align=center;verticalAlign=middle;whiteSpace=wrap;rounded=0;comic=1;fontSize=16;" vertex="1" parent="1">
          <mxGeometry x="400" y="620" width="40" height="20" as="geometry" />
        </mxCell>
        <mxCell id="S-LU_qJC10lirUp9yv28-29" style="edgeStyle=orthogonalEdgeStyle;rounded=0;comic=1;orthogonalLoop=1;jettySize=auto;html=1;fontSize=16;" edge="1" parent="1" source="S-LU_qJC10lirUp9yv28-23">
          <mxGeometry relative="1" as="geometry">
            <mxPoint x="790" y="380" as="targetPoint" />
          </mxGeometry>
        </mxCell>
        <mxCell id="S-LU_qJC10lirUp9yv28-23" value="从缓存取一个请求" style="rounded=1;whiteSpace=wrap;html=1;comic=1;fontSize=16;strokeWidth=2;" vertex="1" parent="1">
          <mxGeometry x="720" y="250" width="140" height="60" as="geometry" />
        </mxCell>
        <mxCell id="S-LU_qJC10lirUp9yv28-28" style="edgeStyle=orthogonalEdgeStyle;rounded=0;comic=1;orthogonalLoop=1;jettySize=auto;html=1;fontSize=16;entryX=0.5;entryY=0;entryDx=0;entryDy=0;" edge="1" parent="1" source="S-LU_qJC10lirUp9yv28-24" target="S-LU_qJC10lirUp9yv28-23">
          <mxGeometry relative="1" as="geometry">
            <mxPoint x="570" y="690" as="targetPoint" />
          </mxGeometry>
        </mxCell>
        <mxCell id="S-LU_qJC10lirUp9yv28-40" style="edgeStyle=orthogonalEdgeStyle;rounded=0;comic=1;orthogonalLoop=1;jettySize=auto;html=1;exitX=0.5;exitY=1;exitDx=0;exitDy=0;exitPerimeter=0;entryX=0.5;entryY=0;entryDx=0;entryDy=0;entryPerimeter=0;fontSize=16;" edge="1" parent="1" source="S-LU_qJC10lirUp9yv28-24" target="S-LU_qJC10lirUp9yv28-37">
          <mxGeometry relative="1" as="geometry">
            <Array as="points">
              <mxPoint x="405" y="750" />
              <mxPoint x="664" y="750" />
            </Array>
          </mxGeometry>
        </mxCell>
        <mxCell id="S-LU_qJC10lirUp9yv28-24" value="缓存池有数据" style="strokeWidth=2;html=1;shape=mxgraph.flowchart.decision;whiteSpace=wrap;comic=1;fontSize=16;" vertex="1" parent="1">
          <mxGeometry x="340" y="650" width="130" height="80" as="geometry" />
        </mxCell>
        <mxCell id="S-LU_qJC10lirUp9yv28-26" value="N" style="text;html=1;strokeColor=none;fillColor=none;align=center;verticalAlign=middle;whiteSpace=wrap;rounded=0;comic=1;fontSize=16;" vertex="1" parent="1">
          <mxGeometry x="400" y="730" width="40" height="20" as="geometry" />
        </mxCell>
        <mxCell id="S-LU_qJC10lirUp9yv28-31" style="edgeStyle=orthogonalEdgeStyle;rounded=0;comic=1;orthogonalLoop=1;jettySize=auto;html=1;fontSize=16;" edge="1" parent="1" source="S-LU_qJC10lirUp9yv28-30">
          <mxGeometry relative="1" as="geometry">
            <mxPoint x="790" y="500" as="targetPoint" />
          </mxGeometry>
        </mxCell>
        <mxCell id="S-LU_qJC10lirUp9yv28-30" value="Call&lt;br&gt;lua.AddGroup&lt;br&gt;lua.DelGroup" style="rounded=1;whiteSpace=wrap;html=1;comic=1;fontSize=16;strokeWidth=2;fontStyle=1;fillColor=#dae8fc;strokeColor=#6c8ebf;" vertex="1" parent="1">
          <mxGeometry x="720" y="380" width="140" height="60" as="geometry" />
        </mxCell>
        <mxCell id="S-LU_qJC10lirUp9yv28-35" style="edgeStyle=orthogonalEdgeStyle;rounded=0;comic=1;orthogonalLoop=1;jettySize=auto;html=1;entryX=1;entryY=0.5;entryDx=0;entryDy=0;fontSize=16;" edge="1" parent="1" source="S-LU_qJC10lirUp9yv28-33" target="S-LU_qJC10lirUp9yv28-23">
          <mxGeometry relative="1" as="geometry">
            <Array as="points">
              <mxPoint x="940" y="540" />
              <mxPoint x="940" y="280" />
            </Array>
          </mxGeometry>
        </mxCell>
        <mxCell id="S-LU_qJC10lirUp9yv28-36" style="edgeStyle=orthogonalEdgeStyle;rounded=0;comic=1;orthogonalLoop=1;jettySize=auto;html=1;fontSize=16;entryX=0.5;entryY=0;entryDx=0;entryDy=0;entryPerimeter=0;" edge="1" parent="1" source="S-LU_qJC10lirUp9yv28-33" target="S-LU_qJC10lirUp9yv28-37">
          <mxGeometry relative="1" as="geometry">
            <mxPoint x="790" y="770" as="targetPoint" />
          </mxGeometry>
        </mxCell>
        <mxCell id="S-LU_qJC10lirUp9yv28-33" value="缓存池有数据&amp;amp;&amp;amp;&lt;br&gt;没有超过间隔时长" style="strokeWidth=2;html=1;shape=mxgraph.flowchart.decision;whiteSpace=wrap;comic=1;fontSize=16;" vertex="1" parent="1">
          <mxGeometry x="680" y="500" width="220" height="80" as="geometry" />
        </mxCell>
        <mxCell id="S-LU_qJC10lirUp9yv28-34" value="Y" style="text;html=1;strokeColor=none;fillColor=none;align=center;verticalAlign=middle;whiteSpace=wrap;rounded=0;comic=1;fontSize=16;" vertex="1" parent="1">
          <mxGeometry x="900" y="510" width="40" height="20" as="geometry" />
        </mxCell>
        <mxCell id="S-LU_qJC10lirUp9yv28-37" value="Call lua.OnTick" style="strokeWidth=2;html=1;shape=mxgraph.flowchart.terminator;whiteSpace=wrap;comic=1;fontSize=16;fontStyle=1;fillColor=#dae8fc;strokeColor=#6c8ebf;" vertex="1" parent="1">
          <mxGeometry x="550" y="760" width="227.5" height="60" as="geometry" />
        </mxCell>
        <mxCell id="S-LU_qJC10lirUp9yv28-38" value="N" style="text;html=1;strokeColor=none;fillColor=none;align=center;verticalAlign=middle;whiteSpace=wrap;rounded=0;comic=1;fontSize=16;" vertex="1" parent="1">
          <mxGeometry x="787" y="600" width="40" height="20" as="geometry" />
        </mxCell>
        <mxCell id="S-LU_qJC10lirUp9yv28-41" value="优雅关闭" style="strokeWidth=2;html=1;shape=mxgraph.flowchart.terminator;whiteSpace=wrap;comic=1;fontSize=16;" vertex="1" parent="1">
          <mxGeometry x="170" y="465" width="100" height="60" as="geometry" />
        </mxCell>
        <mxCell id="S-LU_qJC10lirUp9yv28-42" value="热更新" style="strokeWidth=2;html=1;shape=mxgraph.flowchart.terminator;whiteSpace=wrap;comic=1;fontSize=16;" vertex="1" parent="1">
          <mxGeometry x="170" y="555" width="100" height="60" as="geometry" />
        </mxCell>
      </root>
    </mxGraphModel>
  </diagram>
</mxfile>
